<svg width="408" height="410" viewBox="0 0 408 410" fill="none" xmlns="http://www.w3.org/2000/svg">
<rect width="408" height="410" fill="#E5E5E5"/>
<rect x="-361" y="-383" width="1133" height="1133" fill="#FF5722"/>
<g filter="url(#filter0_d)">
<rect x="-26" y="-11" width="464" height="464" rx="63" fill="#FF5722"/>
</g>
<path d="M85.5568 358.375C85.5568 351.523 89.8011 347.636 95.5795 347.636C101.179 347.636 104.58 351.293 104.58 357.455V382H110.614V357.045C110.614 347.023 105.27 342.216 97.3182 342.216C91.3864 342.216 87.7045 344.875 85.8636 348.864H85.3523V342.727H79.5227V382H85.5568V358.375ZM133.274 382.818C143.911 382.818 151.07 374.739 151.07 362.568C151.07 350.295 143.911 342.216 133.274 342.216C122.638 342.216 115.479 350.295 115.479 362.568C115.479 374.739 122.638 382.818 133.274 382.818ZM133.274 377.398C125.195 377.398 121.513 370.443 121.513 362.568C121.513 354.693 125.195 347.636 133.274 347.636C141.354 347.636 145.036 354.693 145.036 362.568C145.036 370.443 141.354 377.398 133.274 377.398ZM173.04 342.727H164.654V333.318H158.62V342.727H152.688V347.841H158.62V372.386C158.62 379.239 164.143 382.511 169.256 382.511C171.506 382.511 172.938 382.102 173.756 381.795L172.529 376.375C172.018 376.477 171.199 376.682 169.87 376.682C167.211 376.682 164.654 375.864 164.654 370.75V347.841H173.04V342.727ZM189.354 382.92C196.206 382.92 199.786 379.239 201.013 376.682H201.32V382H207.354V356.125C207.354 343.648 197.843 342.216 192.831 342.216C186.899 342.216 180.149 344.261 177.081 351.42L182.808 353.466C184.138 350.602 187.283 347.534 193.036 347.534C198.584 347.534 201.32 350.474 201.32 355.511V355.716C201.32 358.631 198.354 358.375 191.195 359.295C183.908 360.241 175.956 361.852 175.956 370.852C175.956 378.523 181.888 382.92 189.354 382.92ZM190.274 377.5C185.468 377.5 181.99 375.352 181.99 371.159C181.99 366.557 186.183 365.125 190.888 364.511C193.445 364.205 200.297 363.489 201.32 362.261V367.784C201.32 372.693 197.433 377.5 190.274 377.5ZM214.047 382H220.082V357.148C220.082 351.83 224.275 347.943 230.002 347.943C231.613 347.943 233.275 348.25 233.684 348.352V342.216C232.993 342.165 231.408 342.114 230.513 342.114C225.809 342.114 221.718 344.773 220.286 348.659H219.877V342.727H214.047V382ZM251.276 382.818C261.912 382.818 269.071 374.739 269.071 362.568C269.071 350.295 261.912 342.216 251.276 342.216C240.639 342.216 233.48 350.295 233.48 362.568C233.48 374.739 240.639 382.818 251.276 382.818ZM251.276 377.398C243.196 377.398 239.514 370.443 239.514 362.568C239.514 354.693 243.196 347.636 251.276 347.636C259.355 347.636 263.037 354.693 263.037 362.568C263.037 370.443 259.355 377.398 251.276 377.398ZM289.917 382.818C300.553 382.818 307.712 374.739 307.712 362.568C307.712 350.295 300.553 342.216 289.917 342.216C279.28 342.216 272.121 350.295 272.121 362.568C272.121 374.739 279.28 382.818 289.917 382.818ZM289.917 377.398C281.837 377.398 278.155 370.443 278.155 362.568C278.155 354.693 281.837 347.636 289.917 347.636C297.996 347.636 301.678 354.693 301.678 362.568C301.678 370.443 297.996 377.398 289.917 377.398Z" fill="white"/>
<path d="M85.5568 358.375C85.5568 351.523 89.8011 347.636 95.5795 347.636C101.179 347.636 104.58 351.293 104.58 357.455V382H110.614V357.045C110.614 347.023 105.27 342.216 97.3182 342.216C91.3864 342.216 87.7045 344.875 85.8636 348.864H85.3523V342.727H79.5227V382H85.5568V358.375ZM133.274 382.818C143.911 382.818 151.07 374.739 151.07 362.568C151.07 350.295 143.911 342.216 133.274 342.216C122.638 342.216 115.479 350.295 115.479 362.568C115.479 374.739 122.638 382.818 133.274 382.818ZM133.274 377.398C125.195 377.398 121.513 370.443 121.513 362.568C121.513 354.693 125.195 347.636 133.274 347.636C141.354 347.636 145.036 354.693 145.036 362.568C145.036 370.443 141.354 377.398 133.274 377.398ZM173.04 342.727H164.654V333.318H158.62V342.727H152.688V347.841H158.62V372.386C158.62 379.239 164.143 382.511 169.256 382.511C171.506 382.511 172.938 382.102 173.756 381.795L172.529 376.375C172.018 376.477 171.199 376.682 169.87 376.682C167.211 376.682 164.654 375.864 164.654 370.75V347.841H173.04V342.727ZM189.354 382.92C196.206 382.92 199.786 379.239 201.013 376.682H201.32V382H207.354V356.125C207.354 343.648 197.843 342.216 192.831 342.216C186.899 342.216 180.149 344.261 177.081 351.42L182.808 353.466C184.138 350.602 187.283 347.534 193.036 347.534C198.584 347.534 201.32 350.474 201.32 355.511V355.716C201.32 358.631 198.354 358.375 191.195 359.295C183.908 360.241 175.956 361.852 175.956 370.852C175.956 378.523 181.888 382.92 189.354 382.92ZM190.274 377.5C185.468 377.5 181.99 375.352 181.99 371.159C181.99 366.557 186.183 365.125 190.888 364.511C193.445 364.205 200.297 363.489 201.32 362.261V367.784C201.32 372.693 197.433 377.5 190.274 377.5ZM214.047 382H220.082V357.148C220.082 351.83 224.275 347.943 230.002 347.943C231.613 347.943 233.275 348.25 233.684 348.352V342.216C232.993 342.165 231.408 342.114 230.513 342.114C225.809 342.114 221.718 344.773 220.286 348.659H219.877V342.727H214.047V382ZM251.276 382.818C261.912 382.818 269.071 374.739 269.071 362.568C269.071 350.295 261.912 342.216 251.276 342.216C240.639 342.216 233.48 350.295 233.48 362.568C233.48 374.739 240.639 382.818 251.276 382.818ZM251.276 377.398C243.196 377.398 239.514 370.443 239.514 362.568C239.514 354.693 243.196 347.636 251.276 347.636C259.355 347.636 263.037 354.693 263.037 362.568C263.037 370.443 259.355 377.398 251.276 377.398ZM289.917 382.818C300.553 382.818 307.712 374.739 307.712 362.568C307.712 350.295 300.553 342.216 289.917 342.216C279.28 342.216 272.121 350.295 272.121 362.568C272.121 374.739 279.28 382.818 289.917 382.818ZM289.917 377.398C281.837 377.398 278.155 370.443 278.155 362.568C278.155 354.693 281.837 347.636 289.917 347.636C297.996 347.636 301.678 354.693 301.678 362.568C301.678 370.443 297.996 377.398 289.917 377.398Z" fill="white"/>
<path d="M175.295 184.273C175.438 162.682 187.653 149.614 207.114 149.614C226.858 149.614 238.506 162.682 238.364 184.273V307H316.773V167.795C316.915 120.352 286.943 85.9773 240.636 85.9773C208.534 85.9773 183.108 102.739 173.591 130.295H171.318V88.8182H96.8864V307H175.295V184.273Z" fill="white"/>
<defs>
<filter id="filter0_d" x="-30" y="-11" width="472" height="472" filterUnits="userSpaceOnUse" color-interpolation-filters="sRGB">
<feFlood flood-opacity="0" result="BackgroundImageFix"/>
<feColorMatrix in="SourceAlpha" type="matrix" values="0 0 0 0 0 0 0 0 0 0 0 0 0 0 0 0 0 0 127 0"/>
<feOffset dy="4"/>
<feGaussianBlur stdDeviation="2"/>
<feColorMatrix type="matrix" values="0 0 0 0 0 0 0 0 0 0 0 0 0 0 0 0 0 0 0.25 0"/>
<feBlend mode="normal" in2="BackgroundImageFix" result="effect1_dropShadow"/>
<feBlend mode="normal" in="SourceGraphic" in2="effect1_dropShadow" result="shape"/>
</filter>
</defs>
</svg>
